HIERARCHY
ROOT Hips
{
	OFFSET 0.000000 0.000000 0.000000 
	CHANNELS 6 Xposition Yposition Zposition Zrotation Yrotation Xrotation
	JOINT LeftUpLeg
	{
		OFFSET 1.363060 -1.794630 0.839290 
		CHANNELS 3 Zrotation Yrotation Xrotation
		JOINT LeftLeg
		{
			OFFSET 2.448110 -6.726130 0.000000 
			CHANNELS 3 Zrotation Yrotation Xrotation
			JOINT LeftFoot
			{
				OFFSET 2.562200 -7.039590 0.000000 
				CHANNELS 3 Zrotation Yrotation Xrotation
				JOINT LeftToeBase
				{
					OFFSET 0.157640 -0.433110 2.322550 
					CHANNELS 3 Zrotation Yrotation Xrotation
					End Site
					{
						OFFSET 0.000000 0.000000 0.000000 
					}
				}
			}
		}
	}
	JOINT RightUpLeg
	{
		OFFSET -1.305520 -1.794630 0.839290 
		CHANNELS 3 Zrotation Yrotation Xrotation
		JOINT RightLeg
		{
			OFFSET -2.542530 -6.985550 0.000000 
			CHANNELS 3 Zrotation Yrotation Xrotation
			JOINT RightFoot
			{
				OFFSET -2.568260 -7.056230 0.000000 
				CHANNELS 3 Zrotation Yrotation Xrotation
				JOINT RightToeBase
				{
					OFFSET -0.164730 -0.452590 2.363150 
					CHANNELS 3 Zrotation Yrotation Xrotation
					End Site
					{
						OFFSET 0.000000 0.000000 0.000000 
					}
				}
			}
		}
	}
	JOINT Spine
	{
		OFFSET 0.028270 2.035590 -0.193380 
		CHANNELS 3 Zrotation Yrotation Xrotation
		JOINT Spine1
		{
			OFFSET 0.056720 2.048850 -0.042750 
			CHANNELS 3 Zrotation Yrotation Xrotation
			JOINT Neck1
			{
				OFFSET -0.054170 1.746240 0.172020 
				CHANNELS 3 Zrotation Yrotation Xrotation
				JOINT Head
				{
					OFFSET 0.104070 1.761360 -0.123970 
					CHANNELS 3 Zrotation Yrotation Xrotation
					End Site
					{
						OFFSET 0.000000 0.000000 0.000000 
					}
				}
			}
			JOINT LeftArm
			{
				OFFSET 3.362410 1.200890 -0.311210 
				CHANNELS 3 Zrotation Yrotation Xrotation
				JOINT LeftForeArm
				{
					OFFSET 4.983000 -0.000000 -0.000000 
					CHANNELS 3 Zrotation Yrotation Xrotation
					JOINT LeftHand
					{
						OFFSET 3.483560 -0.000000 -0.000000 
						CHANNELS 3 Zrotation Yrotation Xrotation
						JOINT LeftHandIndex1
						{
							OFFSET 0.715260 -0.000000 -0.000000 
							CHANNELS 3 Zrotation Yrotation Xrotation
							End Site
							{
								OFFSET 0.000000 0.000000 0.000000 
							}
						}
					}
				}
			}
			JOINT RightArm
			{
				OFFSET -3.136600 1.374050 -0.404650 
				CHANNELS 3 Zrotation Yrotation Xrotation
				JOINT RightForeArm
				{
					OFFSET -5.241900 -0.000000 -0.000000 
					CHANNELS 3 Zrotation Yrotation Xrotation
					JOINT RightHand
					{
						OFFSET -3.444170 -0.000000 -0.000000 
						CHANNELS 3 Zrotation Yrotation Xrotation
						JOINT RightHandIndex1
						{
							OFFSET -0.622530 -0.000000 -0.000000 
							CHANNELS 3 Zrotation Yrotation Xrotation
							End Site
							{
								OFFSET 0.000000 0.000000 0.000000 
							}
						}
					}
				}
			}
		}
	}
}
MOTION
Frames: 18
Frame Time: 0.041667
-6.107036 17.653943 37.261302 -156.180029 -79.047415 167.821139 -8.434210 -2.212165 -10.839223 -2.250264 5.127847 11.717387 0.460007 2.454226 6.152853 1.958900 -8.780000 -25.109400 25.256821 -6.476465 -10.390527 1.742280 -4.710071 9.758215 -3.791247 15.494754 7.106403 -0.279500 3.400400 -9.395500 1.126903 3.663714 -3.704867 1.198515 1.704753 -7.507590 16.207105 -26.720764 4.389963 25.153900 -14.628000 5.293800 -80.123812 8.969146 34.185055 17.904325 -24.526914 -5.184089 1.228051 -1.472883 -46.559220 -7.125000 0.000000 0.000000 76.858730 -6.449841 46.121500 -12.341568 21.894278 -2.820665 -0.403228 0.501585 22.727077 7.125000 0.000000 0.000000 
-6.107469 17.653510 37.254588 -156.478990 -79.076984 168.094319 -8.477321 -2.218397 -10.799445 -2.253573 5.119890 11.694839 0.453427 2.473297 6.148186 1.958600 -8.779300 -25.107300 25.197745 -6.488421 -10.443245 1.735057 -4.763092 9.901086 -3.797521 15.545950 7.094688 -0.261300 3.288700 -9.083600 1.155702 3.650827 -3.704011 1.370949 1.724526 -7.530306 16.226855 -26.755837 4.333419 25.202200 -14.626000 5.272100 -80.214533 9.043491 34.423838 17.696032 -24.285148 -5.050892 1.250985 -1.376911 -46.225211 -7.125000 0.000000 0.000000 76.710431 -6.465706 46.044495 -12.313567 21.863305 -2.814797 -0.404875 0.502701 22.827445 7.125000 0.000000 0.000000 
-6.105953 17.651561 37.248957 -156.097250 -79.093312 167.704799 -8.393890 -2.338501 -10.778151 -2.248028 5.140334 11.746555 0.411210 2.608506 6.101821 2.007100 -8.880900 -25.423400 25.288260 -6.500509 -10.452188 1.733200 -4.782776 9.941498 -3.795770 15.537796 7.014505 -0.269700 3.340800 -9.229200 1.152913 3.663547 -3.704550 1.307636 1.720758 -7.546610 16.256973 -26.795306 4.273879 25.232700 -14.631200 5.240000 -80.174722 9.098359 34.685614 17.468963 -24.018496 -4.914534 1.273894 -1.274994 -45.894554 -7.125000 0.000000 0.000000 76.786242 -6.469025 45.864062 -12.274771 21.817468 -2.803711 -0.406887 0.500135 22.943621 7.125000 0.000000 0.000000 
-6.104654 17.650370 37.241269 -155.932529 -79.107827 167.520723 -8.345305 -2.397128 -10.761067 -2.243282 5.156287 11.791496 0.399782 2.645398 6.095078 2.007300 -8.881300 -25.424800 25.339185 -6.506372 -10.459590 1.731128 -4.805850 9.996869 -3.793486 15.522868 6.995929 -0.261900 3.292300 -9.093600 1.155177 3.665395 -3.700265 1.300745 1.721349 -7.543241 16.294266 -26.823735 4.227011 25.316600 -14.641900 5.235200 -80.148459 9.151616 34.961176 17.278636 -23.796768 -4.802119 1.291843 -1.179413 -45.639240 -7.125000 0.000000 0.000000 76.821420 -6.475250 45.841088 -12.272405 21.813582 -2.801503 -0.404108 0.499619 22.994230 7.125000 0.000000 0.000000 
-6.103354 17.648854 37.234122 -155.761072 -79.120810 167.330959 -8.295871 -2.476078 -10.754773 -2.236277 5.186586 11.870026 0.377078 2.714700 6.054000 2.020100 -8.907700 -25.507200 25.390397 -6.503134 -10.442648 1.730850 -4.813335 10.012386 -3.790049 15.496827 6.977913 -0.259700 3.278400 -9.054700 1.156868 3.672584 -3.698088 1.289927 1.723498 -7.551547 16.328097 -26.864273 4.171035 25.374700 -14.652000 5.216500 -80.123083 9.201740 35.201147 17.158346 -23.655393 -4.728402 1.299636 -1.111039 -45.469301 -7.125000 0.000000 0.000000 76.843722 -6.483549 45.784736 -12.259884 21.798912 -2.797436 -0.403357 0.498611 23.046095 7.125000 0.000000 0.000000 
-6.101622 17.647229 37.226758 -155.555271 -79.130205 167.107802 -8.238695 -2.558631 -10.746884 -2.229072 5.215394 11.945610 0.353519 2.787371 6.018077 2.032300 -8.933000 -25.585900 25.449827 -6.487018 -10.424763 1.730557 -4.823862 10.034253 -3.785232 15.455824 6.947260 -0.259700 3.278700 -9.055700 1.153578 3.687482 -3.695585 1.253810 1.725391 -7.559616 16.362995 -26.914785 4.109226 25.421600 -14.664700 5.191500 -80.075761 9.244886 35.437988 17.090146 -23.572851 -4.680965 1.300169 -1.062663 -45.370820 -7.125000 0.000000 0.000000 76.883221 -6.490128 45.729997 -12.250431 21.787858 -2.794159 -0.402646 0.497377 23.081770 7.125000 0.000000 0.000000 
-6.099564 17.645605 37.219069 -155.335332 -79.130108 166.871183 -8.173783 -2.640283 -10.742276 -2.221084 5.245511 12.025153 0.329194 2.863023 5.983780 2.041200 -8.951500 -25.643600 25.515631 -6.443840 -10.399620 1.731085 -4.834543 10.054598 -3.778322 15.391677 6.914446 -0.260600 3.284000 -9.070500 1.149867 3.707513 -3.693456 1.213819 1.729105 -7.571026 16.395954 -26.973940 4.041946 25.454200 -14.678000 5.159600 -80.023684 9.286448 35.687070 17.060264 -23.532727 -4.650104 1.294116 -1.028884 -45.246286 -7.125000 0.000000 0.000000 76.918932 -6.497436 45.691948 -12.245013 21.781473 -2.792003 -0.401679 0.496217 23.096725 7.125000 0.000000 0.000000 
-6.097398 17.643981 37.211814 -155.159619 -79.132833 166.681354 -8.117968 -2.726656 -10.740757 -2.213448 5.277324 12.107713 0.303088 2.943189 5.944797 2.051100 -8.971800 -25.707200 25.570749 -6.404714 -10.380049 1.731330 -4.844809 10.074592 -3.772125 15.332734 6.880072 -0.262500 3.296100 -9.104200 1.145788 3.725121 -3.691763 1.171070 1.730751 -7.582931 16.422804 -27.033211 3.974610 25.472300 -14.688500 5.121800 -79.978520 9.325783 35.927393 17.056149 -23.520361 -4.630070 1.283175 -1.006280 -45.059158 -7.125000 0.000000 0.000000 76.941408 -6.505052 45.682917 -12.242995 21.779543 -2.790891 -0.400748 0.495172 23.083236 7.125000 0.000000 0.000000 
-6.095016 17.642465 37.204451 -154.952994 -79.131416 166.461590 -8.054504 -2.814093 -10.737845 -2.205469 5.307962 12.187918 0.276687 3.025184 5.909871 2.060300 -8.990500 -25.765600 25.633719 -6.350430 -10.357946 1.731738 -4.857873 10.100271 -3.764405 15.257640 6.836122 -0.265800 3.316300 -9.160700 1.145310 3.739663 -3.690228 1.137899 1.732124 -7.596358 16.443982 -27.089848 3.909830 25.482200 -14.696500 5.082600 -79.950511 9.365461 36.172936 17.043580 -23.497012 -4.604477 1.270729 -0.980772 -44.751760 -7.125000 0.000000 0.000000 76.945923 -6.513046 45.700446 -12.244400 21.781678 -2.790802 -0.399835 0.494505 23.045826 7.125000 0.000000 0.000000 
-6.092525 17.640949 37.197087 -154.792398 -79.133290 166.286804 -7.999809 -2.896566 -10.735534 -2.198276 5.336472 12.261855 0.250715 3.105819 5.877356 2.072700 -9.016000 -25.845300 25.686338 -6.293341 -10.342128 1.731589 -4.874786 10.136084 -3.757127 15.184320 6.787448 -0.268700 3.334200 -9.210700 1.143632 3.759717 -3.689100 1.106011 1.736365 -7.612256 16.459564 -27.153146 3.840307 25.474900 -14.703100 5.033600 -79.912661 9.420829 36.499781 17.048434 -23.493306 -4.584000 1.254936 -0.955474 -44.386959 -7.125000 0.000000 0.000000 76.944853 -6.530312 45.758712 -12.257179 21.796550 -2.792945 -0.396288 0.493549 22.950486 7.125000 0.000000 0.000000 
-6.090035 17.639433 37.189723 -154.667676 -79.141615 166.147305 -7.953978 -2.980552 -10.728077 -2.192098 5.362671 12.328999 0.224515 3.187047 5.847287 2.085400 -9.041800 -25.926000 25.729697 -6.249566 -10.335150 1.730315 -4.895670 10.183846 -3.751370 15.125316 6.736531 -0.270400 3.344700 -9.239800 1.141490 3.781585 -3.687318 1.079951 1.742358 -7.625949 16.475701 -27.221821 3.769212 25.476400 -14.713200 4.987600 -79.866435 9.482352 36.853820 17.067155 -23.506795 -4.570715 1.238706 -0.933090 -44.039349 -7.125000 0.000000 0.000000 76.932884 -6.551641 45.856183 -12.279485 21.823020 -2.797429 -0.391014 0.492700 22.802707 7.125000 0.000000 0.000000 
-6.087761 17.637916 37.181602 -154.546640 -79.153176 166.006216 -7.910204 -3.060098 -10.712479 -2.186553 5.384954 12.386241 0.197344 3.271788 5.820662 2.106300 -9.084000 -26.058500 25.772040 -6.203777 -10.328377 1.728080 -4.923505 10.249166 -3.745400 15.063445 6.673708 -0.271400 3.350900 -9.257100 1.138204 3.807702 -3.684914 1.055193 1.750855 -7.640901 16.490521 -27.296191 3.694073 25.470200 -14.724100 4.933000 -79.799378 9.556747 37.263237 17.111404 -23.550684 -4.568523 1.220229 -0.915365 -43.748422 -7.125000 0.000000 0.000000 76.925113 -6.580122 45.971250 -12.309176 21.857755 -2.803694 -0.384166 0.491875 22.618250 7.125000 0.000000 0.000000 
-6.085595 17.636076 37.172939 -154.444287 -79.170259 165.876657 -7.871018 -3.143640 -10.686346 -2.181518 5.405354 12.438116 0.167818 3.363780 5.794158 2.130400 -9.132500 -26.210600 25.810694 -6.169942 -10.324637 1.724784 -4.956179 10.327917 -3.740409 15.011893 6.607671 -0.270900 3.348200 -9.249900 1.136041 3.825732 -3.681468 1.034580 1.756156 -7.653034 16.501028 -27.362116 3.627602 25.463500 -14.733300 4.883000 -79.748469 9.617846 37.600952 17.147663 -23.585550 -4.565298 1.202965 -0.900013 -43.502074 -7.125000 0.000000 0.000000 76.919437 -6.601146 46.061015 -12.330255 21.882611 -2.807879 -0.378990 0.491531 22.466471 7.125000 0.000000 0.000000 
-6.083538 17.634126 37.163842 -154.361907 -79.196310 165.761813 -7.839042 -3.230723 -10.652511 -2.176865 5.425447 12.488738 0.137253 3.458274 5.765035 2.158400 -9.188400 -26.386600 25.843681 -6.158773 -10.326245 1.720153 -4.992486 10.417494 -3.737422 14.980673 6.540369 -0.269300 3.338100 -9.221600 1.136923 3.827990 -3.676957 1.023648 1.755412 -7.660405 16.505614 -27.412620 3.575204 25.458900 -14.739100 4.841600 -79.727103 9.659327 37.826253 17.172382 -23.607275 -4.560384 1.187686 -0.887967 -43.320258 -7.125000 0.000000 0.000000 76.895649 -6.612693 46.141995 -12.344314 21.900592 -2.811436 -0.377097 0.492407 22.341620 7.125000 0.000000 0.000000 
-6.081263 17.632177 37.154096 -154.250536 -79.219599 165.613183 -7.799753 -3.318039 -10.617459 -2.171297 5.447001 12.544455 0.106737 3.552302 5.735806 2.185200 -9.241600 -26.554000 25.885144 -6.149727 -10.327935 1.715493 -5.030202 10.510450 -3.734705 14.955970 6.479456 -0.265700 3.316200 -9.160500 1.142479 3.816732 -3.672205 1.023745 1.749592 -7.665937 16.505101 -27.445922 3.537839 25.460300 -14.741300 4.811800 -79.742933 9.675762 37.915866 17.180281 -23.609262 -4.552041 1.175277 -0.880250 -43.174337 -7.125000 0.000000 0.000000 76.865779 -6.610287 46.167666 -12.340698 21.898539 -2.811220 -0.379177 0.493992 22.298939 7.125000 0.000000 0.000000 
-6.078665 17.630011 37.144350 -154.148638 -79.246752 165.474669 -7.763349 -3.409872 -10.586921 -2.165085 5.472969 12.611080 0.076161 3.645429 5.700675 2.210200 -9.290900 -26.709500 25.923982 -6.157160 -10.335527 1.710654 -5.065939 10.599441 -3.733545 14.947247 6.425492 -0.262100 3.293500 -9.097100 1.152097 3.790189 -3.667488 1.034568 1.737942 -7.667969 16.497608 -27.459485 3.517758 25.465800 -14.739000 4.794500 -79.795932 9.672957 37.889873 17.176064 -23.596682 -4.541348 1.165165 -0.875724 -43.062486 -7.125000 0.000000 0.000000 76.820876 -6.598049 46.179221 -12.328595 21.887637 -2.809613 -0.384010 0.496236 22.301647 7.125000 0.000000 0.000000 
-6.075849 17.627846 37.134063 -153.999121 -79.270076 165.288255 -7.716272 -3.500445 -10.563632 -2.157011 5.503956 12.692315 0.047854 3.730293 5.662912 2.231000 -9.331500 -26.837800 25.975699 -6.162403 -10.337429 1.706478 -5.098432 10.678883 -3.731519 14.933618 6.375695 -0.259200 3.275600 -9.047100 1.165704 3.756005 -3.662267 1.055725 1.724188 -7.666402 16.485816 -27.461745 3.509525 25.469500 -14.733800 4.787200 -79.869634 9.650886 37.766954 17.167173 -23.579136 -4.532404 1.158380 -0.875632 -43.076309 -7.125000 0.000000 0.000000 76.782342 -6.573444 46.146692 -12.305626 21.863090 -2.805397 -0.390750 0.498334 22.366761 7.125000 0.000000 0.000000 
-6.072384 17.625572 37.123667 -153.799118 -79.289227 165.058284 -7.658420 -3.587671 -10.555256 -2.147317 5.539435 12.786112 0.022408 3.806173 5.626315 2.247600 -9.363800 -26.940000 26.039640 -6.164902 -10.342688 1.703134 -5.127750 10.748412 -3.728956 14.915553 6.327584 -0.257900 3.267200 -9.023600 1.176170 3.734859 -3.657319 1.064394 1.715012 -7.664367 16.476849 -27.479250 3.493230 25.465700 -14.733300 4.777100 -79.915521 9.632415 37.702795 17.178989 -23.585950 -4.532717 1.151328 -0.878458 -43.227087 -7.125000 0.000000 0.000000 76.762049 -6.549347 46.098065 -12.287491 21.843689 -2.802287 -0.395771 0.499695 22.423969 7.125000 0.000000 0.000000 
